<svg width="560" height="160" viewBox="0 0 560 160" xmlns="http://www.w3.org/2000/svg" fill="none">
        <!-- arcs -->
        <g transform="translate(0,12)" stroke="currentColor" stroke-width="6">
                <ellipse cx="64" cy="68" rx="58" ry="18" />
                <ellipse cx="64" cy="68" rx="58" ry="18" transform="rotate(18 64 68)" />
        </g>
        <!-- wordmark -->
        <g transform="translate(120,110)" fill="currentColor">
                <path d="M0-48h28c22 0 40 18 40 40s-18 40-40 40H0v-80z" />
                <rect x="84" y="-48" width="22" height="80" />
                <path d="M124-48h24l30 54 30-54h24v80h-22v-41l-16 30h-14l-16-30v41h-20v-80z" />
                <path d="M282-48h28c24 0 44 18 44 40s-20 40-44 40h-28v-80z" />
        </g>
</svg>